<?xml version="1.0" encoding="utf-8"?>
<!-- Generator: Adobe Illustrator 16.0.0, SVG Export Plug-In . SVG Version: 6.00 Build 0)  -->
<!DOCTYPE svg PUBLIC "-//W3C//DTD SVG 1.1//EN" "http://www.w3.org/Graphics/SVG/1.1/DTD/svg11.dtd">
<svg version="1.1" id="Layer_1" xmlns="http://www.w3.org/2000/svg" xmlns:xlink="http://www.w3.org/1999/xlink" x="0px" y="0px"
	 width="56px" height="24px" viewBox="400.762 174.129 56 24" enable-background="new 400.762 174.129 56 24" xml:space="preserve">
<title>think-spot-logo</title>
<g id="Layer_2">
	<g id="Layer_1-2">
		<path fill="#666666" d="M415.712,180.996c-0.006,0.313-0.049,0.624-0.129,0.927c-0.08,0.329-0.199,0.499-0.339,0.499l-5.312-0.16
			v10.227c-0.045,0.576,0.102,1.15,0.418,1.635c0.349,0.385,0.858,0.584,1.375,0.539c0.529-0.002,1.047-0.162,1.485-0.459
			c0.479-0.301,0.897-0.686,1.236-1.137c0.099-0.15,0.219-0.209,0.357-0.15c0.154,0.057,0.292,0.148,0.4,0.27
			c0.102,0.158,0.192,0.324,0.269,0.5c0.069,0.152,0.11,0.318,0.12,0.486v0.16c0.002,0.051-0.025,0.096-0.07,0.119
			c-0.629,0.805-1.407,1.482-2.292,1.992c-1.085,0.676-2.341,1.021-3.618,0.998c-1.663,0.119-3.293-0.51-4.445-1.715
			c-0.997-1.146-1.495-2.99-1.465-5.592l0.049-7.395c0.003-0.141-0.034-0.278-0.109-0.399c-0.07-0.107-0.191-0.168-0.318-0.159
			h-2.203c-0.1,0-0.179-0.119-0.25-0.359c-0.059-0.164-0.095-0.336-0.109-0.508c0.015-0.17,0.052-0.338,0.109-0.499
			c0.032-0.152,0.104-0.293,0.209-0.408c1.408-0.834,2.756-1.763,4.037-2.781c1.229-0.959,2.374-2.022,3.417-3.179
			c0.089-0.106,0.207-0.183,0.339-0.219c0.142-0.06,0.294-0.094,0.449-0.1c0.177,0,0.353,0.034,0.518,0.1
			c0.179,0.069,0.268,0.139,0.268,0.219l-0.139,5.172h5.303c0.14,0,0.259,0.169,0.339,0.508
			C415.677,180.414,415.71,180.704,415.712,180.996z"/>
		<path fill="#666666" d="M427.562,186.089c1.026,0.496,1.982,1.125,2.841,1.874c0.919,0.828,1.414,2.025,1.346,3.26
			c0.058,1.75-0.675,3.434-1.992,4.584c-1.466,1.225-3.336,1.859-5.244,1.775c-1.135,0.088-2.276-0.092-3.328-0.529
			c-0.899-0.41-1.884-0.6-2.87-0.549c-0.07-0.658-0.16-1.596-0.28-2.818c-0.119-1.229-0.229-2.096-0.328-2.613
			c0-0.068,0.069-0.148,0.268-0.209c0.157-0.061,0.322-0.094,0.489-0.102c0.178,0.002,0.353,0.037,0.518,0.102
			c0.179,0.061,0.28,0.141,0.299,0.209c0.43,1.275,1.154,2.434,2.114,3.379c0.717,0.771,1.708,1.232,2.761,1.285
			c0.613,0.035,1.209-0.213,1.614-0.678c0.383-0.492,0.574-1.109,0.538-1.734c-0.03-0.871-0.562-1.648-1.365-1.992
			c-0.903-0.484-1.82-0.965-2.75-1.436c-1.046-0.518-2.006-1.189-2.851-1.992c-0.899-0.877-1.375-2.097-1.306-3.35
			c0.017-1.655,0.853-3.193,2.233-4.106c2.255-1.674,5.194-2.119,7.843-1.186c0.785,0.311,1.619,0.473,2.461,0.478
			c0,0.578,0,1.366,0.071,2.362c0.069,0.996,0.091,1.833,0.139,2.491c0,0.081-0.099,0.15-0.301,0.22
			c-0.156,0.051-0.32,0.082-0.486,0.089c-0.168,0.002-0.336-0.022-0.498-0.069c-0.17-0.06-0.27-0.14-0.29-0.24
			c-0.189-1.076-0.696-2.072-1.454-2.86c-0.571-0.615-1.364-0.976-2.203-0.997c-0.586-0.039-1.167,0.127-1.645,0.469
			c-0.408,0.389-0.617,0.942-0.567,1.505c0.017,0.918,0.576,1.741,1.425,2.092C425.679,185.252,426.675,185.71,427.562,186.089z"/>
		<path fill="#666666" d="M440.071,194.711c0.015,0.863-0.301,1.699-0.877,2.342c-1.014,1.182-2.794,1.322-3.977,0.309
			c-0.11-0.096-0.213-0.197-0.31-0.309c-1.197-1.34-1.197-3.365,0-4.705c1.015-1.182,2.794-1.32,3.978-0.309
			c0.11,0.096,0.213,0.199,0.309,0.309C439.775,192.996,440.089,193.84,440.071,194.711z"/>
	</g>
</g>
<text transform="matrix(1 0 0 1 433.9272 185.2832)" fill="#666666" font-family="'Arial-BoldMT'" font-size="10">Beta</text>
</svg>
